# xmcd
#
# Track frame offsets: 
#        150
#        17655
#        34067
#        49302
#        62437
#        80275
#        102060
#        117596
#        133410
#        147322
#        170306
#        187458
#        201314
#        215559
#        234681
#        252598
#        268866
#        289708
#        302769
#        318929
#
# Disc length: 4484 seconds
#
# Revision: 0
# Processed by: cddbd v1.5.2PL0 Copyright (c) Steve Scherf et al.
# Submitted via: ExactAudioCopy v1.0b4
#
DISCID=38118214
DTITLE=Dan Seals - The Definitive Collection CD1
DYEAR=2013
DGENRE=Country
TTITLE0=Love On Arrival
TTITLE1=Bop
TTITLE2=(You Bring Out) The Wild Side In Me
TTITLE3=Everybody’S Dream Girl
TTITLE4=Dan Seals  (Feat. Marie Osmond) - Meet Me In Montana
TTITLE5=Everything That Glitters (Is Not Gold)
TTITLE6=My Baby’S Got Good Timing
TTITLE7=After You
TTITLE8=God Must Be Cowboy
TTITLE9=You Still Move Me
TTITLE10=I Will Be There
TTITLE11=Three Time Loser
TTITLE12=One Friend
TTITLE13=Addicted
TTITLE14=Bordertown
TTITLE15=My Old Yellow Car
TTITLE16=They Rage On
TTITLE17=You Really Go For The Heart
TTITLE18=Good Times
TTITLE19=Big Wheels In The Moonlight
EXTD=
EXTT0=
EXTT1=
EXTT2=
EXTT3=
EXTT4=
EXTT5=
EXTT6=
EXTT7=
EXTT8=
EXTT9=
EXTT10=
EXTT11=
EXTT12=
EXTT13=
EXTT14=
EXTT15=
EXTT16=
EXTT17=
EXTT18=
EXTT19=
PLAYORDER=
